<svg xmlns="http://www.w3.org/2000/svg" xmlns:xlink="http://www.w3.org/1999/xlink" version="1.1" width="272.5323pt" height="231.8075pt" viewBox="0 0 272.5323 231.8075">
<defs>
<clipPath id="clip_0">
<path transform="matrix(1,0,0,-1,0,231.8075)" d="M75.33071 39.55568 233.0323 197.2573 237.982 192.3075 80.28046 34.60593Z"/>
</clipPath>
<clipPath id="clip_1">
<path transform="matrix(1,0,0,-1,0,231.8075)" d="M0 0H272.5323V231.8075H0Z"/>
</clipPath>
<clipPath id="clip_2">
<path transform="matrix(1,0,0,-1,0,231.8075)" d="M39.5 87.45625 87.45625 39.5 82.50651 34.55025 34.55025 82.50651Z"/>
</clipPath>
<clipPath id="clip_3">
<path transform="matrix(1,0,0,-1,0,231.8075)" d="M0 0H272.5323V231.8075H0Z"/>
</clipPath>
</defs>
<g id="layer_1" data-name="P">
<g clip-path="url(#clip_0)">
<g clip-path="url(#clip_1)">
<path transform="matrix(1,0,0,-1,0,231.8075)" d="M218.9911 179.7809C219.2819 180.1174 220.623 181.4767 220.6846 181.4424 220.1708 180.9469 219.1253 179.8375 218.9911 179.7809ZM216.2542 177.0896C216.7132 177.6125 217.8112 178.6694 218.1818 178.9807 217.5976 178.4193 216.4703 177.2281 216.2542 177.0896ZM220.5508 181.1125C221.285 181.8239 222.5897 183.1924 222.9558 183.481 222.2215 182.7696 220.9169 181.401 220.5508 181.1125ZM181.5895 143.7524C181.8804 144.0889 183.2215 145.4483 183.2694 145.4004 182.7692 144.9185 181.7237 143.8091 181.5895 143.7524ZM189.2434 151.1828C189.7001 151.708 190.8004 152.7626 191.1687 153.0762 190.5868 152.5125 189.4595 151.3213 189.2434 151.1828ZM193.6008 155.5813C194.6283 156.5996 195.7194 157.6907 195.5604 157.4405 195.1943 157.152 193.7647 155.6357 193.6008 155.5813ZM221.5917 178.3259C220.4823 177.253 219.7278 176.4255 218.989 175.6913 215.2839 172.0044 220.789 177.6829 221.5917 178.3259ZM201.4708 163.1502C200.7343 162.4137 200.1387 161.8364 199.759 161.5068 200.4432 162.1865 201.3797 163.1594 201.4708 163.1502ZM207.8606 169.4442C207.9969 169.6352 211.7748 173.3858 213.898 175.436 212.1319 173.6561 207.7243 169.2532 207.8606 169.4442ZM212.7858 169.4835C210.308 167.0787 206.4119 163.1735 204.6184 161.421 202.8385 159.6822 207.7119 164.6012 212.2217 169.0928 216.7475 173.5958 213.1131 169.7835 214.9726 171.6064 216.8207 173.4135 213.2566 169.8037 211.4039 168.0012 209.5649 166.2124 212.6018 169.231 212.7858 169.4835ZM213.0637 169.4238C213.9479 170.3126 214.7208 171.0672 215.2505 171.5468 214.3527 170.617 213.4935 169.7304 213.0637 169.4238ZM81.06555 39.83439C80.89115 40.60889 82.631 43.12427 84.68491 45.73474 85.20303 46.37781 85.72115 47.02088 86.25496 47.68344 90.31626 52.15988 94.5052 56.56323 98.74888 60.91184 99.59124 61.77076 100.4336 62.62967 101.3015 63.51462 103.8995 66.18107 106.5317 68.84064 109.1821 71.50928 110.062 72.39368 110.9419 73.27808 111.8484 74.18928 114.9782 77.44229 118.0972 80.43346 121.2272 83.57717 122.7933 85.14789 124.3685 86.76413 125.9413 88.46462 126.7254 89.31715 130.2419 92.81085 131.524 94.0109 130.2235 92.91108 136.02 98.62549 135.7632 98.36407 136.4407 98.96859 137.1318 99.61407 137.8092 100.2732 138.4889 100.9301 137.6593 100.0686 136.8251 99.21157 137.5957 99.94116 138.355 100.6822 139.121 101.4436 139.9191 102.2478 140.7172 103.0519 141.5395 103.8804 144.1853 106.6083 147.1086 109.4677 149.6524 111.9157 156.4625 118.7441 175.2179 137.4128 171.8561 134.0099 168.0647 130.1638 170.0674 132.089 171.0972 133.105 171.6995 133.7028 172.5088 134.5029 173.4135 135.3985 173.3679 135.3895 173.2838 135.3373 173.1383 135.21 174.8294 136.9285 177.1728 139.3859 179.5711 141.6793 179.1438 141.2337 178.5846 140.6745 178.4051 140.4449 179.5894 141.6337 178.7008 140.6402 179.4941 141.4016 181.6763 143.5565 182.7266 144.5793 180.2125 142.0744 182.5903 144.3609 184.1522 145.7723 186.5233 148.011 187.387 148.893 186.9142 148.4111 186.63 148.1771 188.1301 149.732 191.6467 153.2257 191.9489 153.5781 192.2466 153.9351 182.445 144.0971 184.1566 145.877 184.8521 146.5999 186.3342 148.0637 186.8751 148.6412 185.6272 147.4069 184.1019 145.8771 183.2904 145.1066 184.1405 145.975 185.3543 147.1888 186.0089 147.8708 185.1769 147.0388 184.5973 146.4728 184.3335 146.2456 185.5451 147.4617 186.4497 148.3846 187.9 149.8257 188.557 150.4508 187.3955 149.2391 188.7594 150.603 189.03 150.8234 187.8683 149.6937 187.973 149.7527 189.0914 150.8438 191.2849 153.0419 191.8419 153.576 192.3897 154.0919 190.5053 152.2394 190.4803 152.1825 194.7652 156.4354 199.6296 161.2816 201.1436 162.7682 202.6688 164.2707 201.2504 162.8523 200.6208 162.1998 202.3984 163.941 203.7214 165.2639 205.8149 167.3438 207.1584 168.6735 206.6333 168.1348 206.1401 167.6187 206.4992 167.9688 206.8175 168.2779 207.0266 168.4779 207.1812 168.6234 207.5677 169.0007 207.8359 169.2507 207.0267 168.4233 205.4901 166.9049 204.8378 166.2206 206.0972 167.4161 208.9839 170.3667 210.0865 171.3918 208.4204 169.6755 206.5996 167.8684 204.7198 165.9567 208.4387 169.6299 212.1253 173.5264 215.1874 176.4106 214.6624 175.8719 214.4602 175.6104 214.0397 175.158 215.1466 176.315 216.7899 178.0268 217.8585 178.9767 218.4245 179.5291 219.5498 180.6133 220.6636 181.7089 218.7406 179.7585 217.4541 178.4537 216.0856 177.1218 216.122 177.1399 216.2539 177.2535 216.4926 177.4786 213.5355 174.3801 211.6711 172.7803 209.4934 170.6482 209.3299 170.4787 209.1664 170.3091 208.9979 170.1344 208.348 169.3933 210.787 171.8642 211.0644 172.0777 207.8889 168.8703 204.3792 165.4244 202.8586 163.8081 206.6661 167.5837 209.987 170.9456 212.8831 173.7505 212.1968 172.9638 209.2985 170.1339 207.9643 168.7404 214.2178 174.8981 214.8474 175.5232 215.3612 176.0187 214.8886 175.5371 214.416 175.0555 213.9292 174.5593 214.0597 174.6718 214.1903 174.7843 214.3248 174.9002 217.057 177.6233 220.2598 180.8306 220.1121 180.651 220.0008 180.5169 217.5141 178.0119 214.8818 175.3796 215.1774 175.6331 215.4731 175.8866 215.7776 176.1477 218.8691 179.2209 222.4472 182.6257 225.4953 185.7422 225.0363 185.192 225.2886 185.458 225.957 186.0716 225.016 185.0759 223.6385 183.6984 222.6248 182.6391 222.9931 182.98 223.6273 183.6278 223.8524 183.8119 223.3478 183.2799 222.5226 182.4685 222.2954 182.1774 223.7707 183.6208 225.3483 185.1801 226.9008 186.7098 227.2602 186.9779 226.2417 186.0324 226.3532 186.0846 227.8285 187.5279 229.8537 189.5943 230.9609 190.6147 229.7653 189.3553 227.3353 186.9846 226.6103 186.2094 227.1099 186.6819 227.6095 187.1544 228.1243 187.6413 229.1244 188.6323 229.6109 189.1006 228.5108 187.9639 227.9221 187.3524 227.938 187.3638 228.0926 187.5093 228.8042 188.1615 231.1728 190.5392 231.1684 190.4072 230.5683 189.8071 228.1929 187.4362 227.6362 186.7928 228.1342 187.195 229.3206 188.4362 229.4867 188.5156 226.8339 185.9039 226.9522 185.9765 226.2656 185.3538 226.5452 185.6471 227.3067 186.3858 227.2521 186.3859 225.6326 184.7649 224.0131 183.1438 222.3445 181.4737 222.5287 181.5895 222.5152 181.4939 222.388 181.3211 223.0995 182.028 223.8474 182.7531 225.1635 184.0829 224.875 183.6621 223.6521 182.4574 222.5132 181.3596 222.532 181.3588 222.5507 181.358 222.5701 181.3572 224.3817 183.1734 227.1709 185.9215 229.06 187.7421 228.2281 186.8828 225.1048 183.7596 222.9658 181.6434 223.0454 181.6989 223.1249 181.7543 223.2069 181.8115 220.52 179.152 217.4402 175.9581 214.4123 172.985 215.9379 174.3509 217.5652 176.1059 219.4519 177.9562 220.3203 178.8063 221.1364 179.5722 221.9934 180.3791 224.3506 182.7681 231.3926 189.8284 232.2269 190.6034 233.1453 191.458 225.9987 184.3114 225.9761 184.2522 225.9534 184.1931 229.3017 187.5003 227.7287 185.9365 226.9059 185.1227 225.1124 183.3429 223.8099 182.0541 223.8025 181.9714 223.7951 181.8888 223.7875 181.8037 224.9218 182.9334 226.2766 184.2517 226.2582 184.3792 226.8265 184.9293 227.9698 186.1319 228.1836 186.2727 227.9972 186.0772 227.7062 185.7953 227.7245 185.7771 227.9995 186.0476 228.3882 186.4499 228.4496 186.4703 227.0926 185.0996 225.231 183.197 223.7422 181.7126 223.6334 181.5693 223.5247 181.426 223.4127 181.2783 223.4469 181.2987 224.6221 182.4421 225.6268 183.4285 226.6884 184.4673 224.5245 182.2669 222.7878 180.5394 222.5321 180.246 222.2764 179.9526 222.0129 179.6504 222.6107 180.2528 223.3063 180.9483 224.1292 181.7621 225.1067 182.694 225.1182 182.6279 226.0957 183.5598 224.35 181.7867 222.2247 179.6568 220.5084 177.9634 219.922 177.3077 219.3355 176.652 218.7312 175.9764 220.1656 177.3788 221.5046 178.6585 222.3071 179.4108 222.9299 180.0427 223.58 180.7019 223.8369 180.9087 223.2664 180.3063 224.8008 181.8269 224.6145 181.5495 223.7393 180.7609 222.0936 179.0787 221.4342 178.5379 220.1249 177.2286 218.6951 175.7943 217.4245 174.5282 217.2685 174.3601 217.1124 174.1921 216.9517 174.0189 218.0337 175.0918 219.0657 176.1056 220.2319 177.2307 219.7775 176.6486 216.6156 173.4821 214.2879 171.2274 209.6691 166.5174 204.7175 162.0311 200.0189 157.4009 199.828 157.21 199.562 156.9303 199.2711 156.6212 198.9509 156.2663 198.6306 155.9114 198.3007 155.5458 199.4236 156.6596 200.4283 157.6461 201.2603 158.4507 198.0077 155.1023 206.0158 163.1332 206.5819 163.6035 201.3132 158.1797 191.2455 148.226 185.1197 141.9953 186.6108 143.4773 187.095 143.9478 185.5153 142.3361 185.0877 141.8996 184.6602 141.463 184.2197 141.0132 190.5504 147.2572 196.9829 153.8904 202.084 158.8 199.1199 155.8176 194.5714 151.3375 193.3896 150.0371 194.2647 150.9077 195.524 152.1852 195.7241 152.3397 194.2422 150.7665 189.0684 145.7114 187.6161 144.1632 194.9878 151.4666 204.9029 161.4638 210.395 166.7734 202.1913 158.6381 191.2216 147.568 184.1565 140.6398 185.3612 141.8628 185.3589 141.8924 184.6928 141.2765 182.5114 139.1192 180.33 136.9619 178.0825 134.7392 177.6439 134.2777 177.8007 134.4209 178.8942 135.4824 179.7943 136.3552 180.308 136.878 180.6195 137.1393 180.0309 136.5278 173.1115 129.6176 178.6238 135.098 184.1225 140.5647 193.6446 150.0275 188.1097 144.4607 182.5748 138.8938 180.4154 136.6615 183.4592 139.6733 186.5165 142.6987 196.1797 152.2387 192.9678 149.0131 189.7696 145.8012 183.0436 138.9977 179.2134 135.1904 175.3696 131.3693 181.6405 137.9459 176.0033 132.3177 170.366 126.6896 175.1147 131.3242 174.0349 130.2491 172.3278 128.5465 169.1932 125.4074 166.2223 122.4319 164.1447 120.3361 161.4557 117.6515 160.1305 116.2762 160.2534 116.3443 166.5884 122.7204 164.1063 120.1836 157.928 114.0053 151.0383 107.0928 153.8113 109.9935 149.9993 106.1678 147.1852 103.3629 144.7871 100.9875 141.1412 97.21396 136.8201 92.91558 136.3587 92.42226 135.82 91.84255 125.5702 81.85276 121.9452 77.8674 121.6543 77.58555 114.7894 70.81189 114.1504 70.2779 107.7155 63.72892 108.6726 64.59937 102.2556 58.22341 96.89334 52.89306 95.22478 51.28837 94.32008 50.39279 88.65542 44.792 88.75792 44.77133 85.76115 42.25812 84.85848 41.49688 83.57418 40.21714 83.01685 39.9016 81.9022 39.27051 81.18283 39.17157 81.06555 39.83439ZM221.5259 180.8193C222.5032 181.8332 224.3172 183.6198 225.3446 184.6928 224.0965 183.5405 222.6236 182.0402 221.1302 180.5058 221.2608 180.6093 221.3913 180.7127 221.5259 180.8193ZM214.5773 172.3836C215.2479 173.0496 216.0115 173.8953 216.773 174.634 217.4845 175.341 218.2119 176.0866 219.3144 177.1389 219.244 177.0184 217.4961 175.2203 216.1118 173.8496 216.1253 173.8361 216.1389 173.8225 216.1528 173.8086 216.8417 174.4563 217.6464 175.2337 218.5874 176.1747 218.904 176.4973 219.2205 176.8199 219.5467 177.1522 219.5488 177.2046 219.026 176.7182 218.8419 176.5204 219.0486 176.8047 219.8623 177.6549 220.9283 178.7437 221.0513 178.8818 221.1743 179.0198 221.301 179.162 221.4146 179.3486 220.578 178.5485 221.4964 179.4577 220.8143 178.8578 219.1846 177.1597 218.1367 176.1345 219.3826 177.2071 214.9499 172.8839 213.9089 171.77 214.1295 171.9725 214.3501 172.175 214.5773 172.3836ZM204.4971 165.7157C203.909 165.1246 203.3209 164.5335 202.715 163.9245 203.5901 164.7951 204.263 165.4588 204.8813 166.068 204.7545 165.9517 204.6277 165.8355 204.4971 165.7157ZM155.0378 117.0319C158.7228 120.4935 166.1214 128.0973 166.674 128.5267 167.4323 129.2986 168.1907 130.0705 168.972 130.8658 163.9848 125.8969 158.6362 120.5801 155.0378 117.0319ZM170.3587 126.9423C170.6542 127.247 170.5246 127.1311 169.7949 126.4151 165.9192 122.5986 163.605 120.3575 166.0327 122.7852 168.1058 124.8582 172.6087 129.384 171.2698 128.077 169.5025 126.3248 167.7352 124.5725 165.9143 122.7671 164.5392 121.36 163.2323 119.9665 161.9095 118.5342 164.8896 121.5006 167.7446 124.3465 170.3587 126.9423ZM160.3163 116.7996C161.3779 117.8657 162.6394 119.141 163.9169 120.4275 162.8022 119.3189 161.6875 118.2102 160.539 117.0679 160.4655 116.9794 160.3921 116.8909 160.3163 116.7996ZM159.0072 115.381C161.1803 117.545 163.3397 119.7227 161.1416 117.5565 160.648 117.0689 160.1544 116.5813 159.6459 116.079 159.4351 115.8487 159.2244 115.6183 159.0072 115.381ZM157.698 114.0171C157.7093 114.0603 158.0639 114.4423 158.7845 115.1674 157.3069 113.699 154.3473 110.7667 154.5202 110.8666 155.509 111.8418 156.591 112.9146 157.698 114.0171ZM152.5985 114.725C153.5464 115.6865 154.3715 116.5253 152.8439 115.0251 152.2633 114.4535 151.6827 113.882 151.0845 113.2931 151.5841 113.7656 152.0838 114.2381 152.5985 114.725ZM205.3711 161.9776C204.9574 161.573 203.4049 160.0159 202.4888 159.1317 202.2678 159.1617 205.8915 162.6029 205.3711 161.9776ZM211.2472 167.7488C210.8472 167.3578 209.2946 165.8007 208.3672 164.9006 208.144 164.9329 211.7676 168.3741 211.2472 167.7488ZM121.9339 77.85148C121.9384 77.85598 121.9429 77.86048 121.9475 77.86512 121.943 77.86062 121.9385 77.85612 121.9339 77.85148ZM121.9339 77.85148"/>
</g>
<g id="layer_1" data-name="P">
</g>
</g>
<g clip-path="url(#clip_2)">
<g clip-path="url(#clip_3)">
<path transform="matrix(1,0,0,-1,0,231.8075)" d="M79.52377 43.99732C79.63489 43.93181 80.02416 43.56079 79.9801 43.50905 79.84715 43.66025 79.51187 43.93166 79.52377 43.99732ZM78.78244 44.78426C78.95261 44.67796 79.23543 44.35408 79.30177 44.22843 79.15191 44.40111 78.79358 44.69557 78.78244 44.78426ZM79.81674 43.47624C80.00885 43.26133 80.41709 42.91695 80.47047 42.78602 80.27836 43.00094 79.87012 43.34531 79.81674 43.47624ZM69.87342 55.02082C69.98455 54.95531 70.37382 54.58429 70.32592 54.53639 70.19681 54.68375 69.86152 54.95516 69.87342 55.02082ZM71.8851 52.7856C72.05755 52.68158 72.33809 52.35542 72.40671 52.23205 72.25456 52.40245 71.89624 52.69691 71.8851 52.7856ZM73.13823 51.57353C73.42165 51.28098 73.72884 50.97379 73.62563 50.98577 73.57225 51.11671 73.1142 51.48807 73.13823 51.57353ZM77.65724 41.80824C77.3683 42.13368 77.10909 42.3199 76.90402 42.52953 75.87254 43.57926 77.53356 42.09159 77.65724 41.80824ZM75.16104 49.24962C74.95369 49.45698 74.7977 49.63122 74.72296 49.75614 74.91267 49.56187 75.19971 49.31133 75.16104 49.24962ZM76.89868 47.41619C76.97213 47.39748 78.01825 46.32399 78.56925 45.69999 78.06323 46.19233 76.82523 47.43489 76.89868 47.41619ZM75.1546 44.27439C74.50376 44.99822 73.40099 46.09186 72.92234 46.61157 72.44753 47.12745 73.84885 45.77174 75.10688 44.49546 76.36647 43.21306 75.22923 44.17239 75.72936 43.63576 76.22338 43.10069 75.19068 44.08776 74.70123 44.62739 74.21562 45.16319 75.05895 44.30161 75.1546 44.27439ZM75.01652 44.07488C75.2684 43.82757 75.4743 43.60341 75.59129 43.43625 75.31805 43.67755 75.05861 43.90962 75.01652 44.07488ZM39.39656 82.10356C39.95549 82.49353 40.94228 82.28228 41.87717 81.90394 42.10311 81.80296 42.32905 81.70197 42.56184 81.59792 43.97129 80.60361 45.28805 79.50126 46.55007 78.34417 46.79784 78.11296 47.04562 77.88174 47.3009 77.64352 48.07621 76.93664 48.83483 76.2054 49.59272 75.46575 49.84335 75.21964 50.09397 74.97354 50.35218 74.71998 51.3123 73.88303 52.10856 72.95904 52.99857 72.08271 53.44244 71.64341 53.91223 71.21467 54.43688 70.81775 54.70149 70.62158 55.67693 69.62333 55.9853 69.23284 55.74776 69.67111 57.32712 68.00963 57.25188 68.08031 57.39586 67.86334 57.5612 67.65237 57.74023 67.4551 57.91698 67.25554 57.66294 67.47764 57.41347 67.70431 57.60413 67.47259 57.8062 67.25227 58.01895 67.03496 58.24752 66.81241 58.47608 66.58987 58.71157 66.36059 59.50908 65.64519 60.2912 64.7992 60.946 64.04861 62.87505 62.1378 68.10001 56.82616 67.1272 57.75792 66.02466 58.80571 66.53882 58.21399 66.81997 57.91916 66.98664 57.74793 67.20863 57.51681 67.4575 57.25882 67.46807 57.28475 67.46484 57.31991 67.43557 57.36743 67.92923 56.90114 68.66208 56.28235 69.27007 55.56943 69.13807 55.68318 68.98064 55.84061 68.89795 55.87312 69.2343 55.54133 68.91688 55.75382 69.11979 55.51898 69.71664 54.89476 69.99478 54.58924 69.29281 55.30034 69.90381 54.5981 70.24708 54.10428 70.82987 53.3892 71.08475 53.15257 70.94579 53.2824 70.89792 53.38045 71.35536 52.97776 72.3308 51.97951 72.44805 51.91244 72.56986 51.84994 69.78691 54.59639 70.31262 54.1391 70.52598 53.95312 70.93156 53.52929 71.10725 53.3901 70.76466 53.74637 70.33232 54.17416 70.13013 54.4174 70.38117 54.18461 70.72292 53.84286 70.92475 53.66839 70.69052 53.90263 70.53609 54.07074 70.48522 54.15811 70.82925 53.81864 71.09565 53.57049 71.49811 53.15891 71.66262 52.96247 71.30346 53.27144 71.68744 52.88746 71.73147 52.79325 71.42489 53.13176 71.42512 53.08592 71.72246 52.7612 72.34296 52.14526 72.48515 51.98026 72.61894 51.81454 72.10884 52.35657 72.08136 52.35212 73.26727 51.13428 74.62514 49.75816 75.03384 49.32209 75.44866 48.88446 75.04931 49.28381 74.85743 49.45287 75.33453 48.93928 75.70699 48.56682 76.28765 47.97247 76.65711 47.58932 76.50052 47.73224 76.34704 47.86291 76.44231 47.75851 76.52607 47.66563 76.5791 47.60347 76.61678 47.55667 76.71973 47.44459 76.78357 47.36251 76.54405 47.58378 76.12311 48.02297 75.91899 48.19515 76.23264 47.81763 77.08631 47.02783 77.34704 46.68955 76.84581 47.1406 76.34195 47.65814 75.79224 48.17592 76.81003 47.1125 77.98244 46.14995 78.73057 45.2239 78.57398 45.36681 78.47905 45.40243 78.3402 45.50934 78.684 45.21573 79.19052 44.77764 79.41537 44.43418 79.56596 44.2699 79.85646 43.93834 80.15836 43.61819 79.59942 44.14977 79.2255 44.50543 78.86361 44.90382 78.86216 44.88702 78.8876 44.84334 78.94603 44.77122 78.02287 45.55296 77.6675 46.17292 77.08362 46.80243 77.03372 46.8463 76.98382 46.89017 76.93242 46.93538 76.69096 47.08559 77.39811 46.41038 77.43529 46.30933 76.52079 47.19189 75.57356 48.20299 75.08408 48.59668 76.13559 47.51323 77.09689 46.59299 77.8538 45.74484 77.59627 45.90201 76.82411 46.74259 76.41047 47.09693 78.10971 45.30189 78.28406 45.12297 78.41701 44.97177 78.27818 45.10158 78.13934 45.23138 77.9963 45.36511 78.02148 45.32187 78.04666 45.27862 78.07261 45.23407 78.83602 44.46153 79.74067 43.56144 79.67862 43.59155 79.63266 43.61471 78.92084 44.30828 78.17974 45.04937 78.23596 44.951 78.29218 44.85263 78.35011 44.75127 79.20879 43.87434 80.10512 42.80466 81.00715 41.97106 80.81945 42.06752 80.89925 42.0014 81.05235 41.79356 80.75235 42.03882 80.36452 42.42664 80.04989 42.69566 80.13604 42.58214 80.32335 42.40851 80.36042 42.33038 80.20082 42.46261 79.97727 42.69985 79.87238 42.74087 80.26728 42.31404 80.69974 41.86333 81.12224 41.41802 81.16494 41.28408 80.92496 41.59705 80.91835 41.54436 81.31325 41.11752 81.90976 40.56207 82.16593 40.21922 81.78841 40.53288 81.14224 41.23835 80.90596 41.42445 81.02926 41.27405 81.15257 41.12365 81.27961 40.96869 81.55535 40.68381 81.68063 40.54029 81.34751 40.83692 81.16715 40.99446 81.16871 40.98834 81.20638 40.94154 81.36873 40.7199 82.04142 40.05632 81.95836 40.01165 81.7894 40.18061 81.12355 40.85103 80.91125 40.97664 80.99007 40.80202 81.35919 40.48765 81.35041 40.40975 80.62984 41.17137 80.63391 41.12168 80.48153 41.33793 80.56901 41.26414 80.7688 41.04154 80.78849 41.07659 80.33156 41.53202 79.87464 41.98744 79.40386 42.45666 79.41188 42.38021 79.35547 42.35451 79.29042 42.37394 79.48781 42.17199 79.68376 41.95323 80.06307 41.5876 79.89708 41.62129 79.56446 41.97216 79.27012 42.30756 79.26287 42.29524 79.25562 42.28292 79.24815 42.27023 79.76113 41.76181 80.52009 40.96179 81.0081 40.40535 80.75634 40.62974 79.87701 41.50906 79.2894 42.11949 79.29636 42.08844 79.30333 42.05739 79.3105 42.0254 78.57157 42.79169 77.63138 43.61784 76.81398 44.48998 77.14117 44.00312 77.68118 43.59085 78.189 43.04654 78.42178 42.7955 78.6194 42.5477 78.82855 42.28837 79.51265 41.6362 81.50698 39.66012 81.70388 39.40391 81.92154 39.12239 79.90945 41.13448 79.87968 41.12775 79.84992 41.12102 80.76631 40.16356 80.32929 40.60971 80.10346 40.84467 79.60728 41.35453 79.24934 41.72616 79.19903 41.7012 79.14872 41.67623 79.09689 41.65051 79.41332 41.32952 79.77138 40.93497 79.85973 40.9926 80.00804 40.82604 80.36792 40.52546 80.38134 40.43905 80.32302 40.48825 80.24695 40.57344 80.2287 40.5552 80.30322 40.47612 80.42141 40.37161 80.41241 40.33956 80.02158 40.7167 79.47115 41.22607 79.05488 41.6469 79.00209 41.66507 78.94929 41.68324 78.8949 41.70195 78.89574 41.68743 79.20616 41.34507 79.47735 41.05564 79.76161 40.74857 79.12898 41.3447 78.64588 41.83692 78.54977 41.8954 78.45365 41.95388 78.35463 42.01413 78.52586 41.84746 78.7217 41.65162 78.94753 41.41667 79.19351 41.12507 79.14705 41.09397 79.39303 40.80237 78.884 41.28403 78.2827 41.88077 77.81412 42.37215 77.60463 42.5124 77.39514 42.65264 77.1793 42.79713 77.56268 42.38182 77.90165 41.98354 78.09543 41.73957 78.27663 41.5675 78.4655 41.38775 78.50569 41.29738 78.32461 41.44653 78.74783 41.00962 78.63693 41.02928 78.44604 41.30685 77.95933 41.75707 77.84968 41.98532 77.48105 42.35395 77.07559 42.75486 76.72076 43.11425 76.66912 43.15384 76.61748 43.19344 76.56428 43.23423 76.86306 42.92632 77.14193 42.62921 77.44395 42.28613 77.23417 42.36818 76.34104 43.25675 75.73243 43.93834 74.37358 45.20595 73.27765 46.76721 71.99863 48.11466 71.94487 48.16842 71.86123 48.23837 71.76763 48.31372 71.65528 48.39145 71.54293 48.46917 71.42718 48.54925 71.73748 48.22982 72.00867 47.94038 72.22538 47.69631 71.24823 48.57765 73.51747 46.33122 73.61549 46.1374 72.03271 47.56508 69.27127 50.44056 67.47935 52.12756 67.89333 51.70445 68.02088 51.56321 67.55565 51.99651 67.42949 52.11364 67.30332 52.23077 67.17334 52.35145 68.90018 50.53793 70.83984 48.799 72.15327 47.29397 71.30705 48.12194 70.07027 49.42715 69.66154 49.71727 69.90501 49.46924 70.27124 49.12125 70.29835 49.04853 69.82266 49.43297 68.44202 50.93223 67.97173 51.30671 70.00337 49.20665 72.84753 46.4446 74.27687 44.83278 72.01101 47.16707 68.85821 50.2195 66.95679 52.25778 67.30766 51.92516 67.32747 51.93729 67.17209 52.14285 66.57336 52.76566 65.97464 53.38848 65.35777 54.03016 65.21965 54.14547 65.25504 54.09639 65.54243 53.77707 65.77833 53.5138 65.92881 53.37244 65.98435 53.26672 65.804 53.42427 63.86175 55.37564 65.39324 53.81221 66.9209 52.25261 69.5638 49.55041 67.98501 51.09727 66.40621 52.64413 65.7515 53.22585 66.58798 52.35744 67.42831 51.48518 70.06998 48.72033 69.15693 49.61969 68.24772 50.51522 66.30437 52.38101 65.24061 53.46758 64.17302 54.55799 66.13442 52.90224 64.55312 54.49267 62.97181 56.08309 64.2357 54.70515 63.93463 55.01078 63.45693 55.49305 62.57148 56.37394 61.73211 57.20875 61.13549 57.78712 60.38131 58.54586 59.97608 58.90091 59.97558 58.84666 61.78549 57.07781 61.05158 57.75698 59.31212 59.49644 57.35775 61.428 58.22031 60.69318 57.1383 61.7615 56.35185 62.55707 55.69128 63.24046 54.58297 64.22103 53.38097 65.44583 53.23061 65.56426 53.05265 65.70117 50.33348 68.68037 49.08196 69.57149 49.00589 69.65669 47.13157 71.62224 47.01892 71.83982 45.13412 73.61057 45.34805 73.30996 43.56768 75.13139 42.07842 76.65258 41.64957 77.1453 41.4007 77.40329 39.84677 79.02109 39.79671 78.94799 39.26284 79.96542 39.09932 80.27037 38.74065 80.63359 38.73867 80.87736 38.7347 81.3649 38.92972 81.79031 39.39656 82.10356ZM79.27862 42.74613C79.57718 42.48407 80.07036 41.96352 80.38884 41.69066 80.09883 42.07647 79.6666 42.48133 79.21984 42.88703 79.23924 42.84053 79.25864 42.79404 79.27862 42.74613ZM76.36934 44.16821C76.55521 43.97778 76.82282 43.79228 77.02261 43.56969 77.22 43.36773 77.43647 43.1695 77.71473 42.84106 77.66276 42.84285 77.13849 43.31694 76.75751 43.71161 76.74396 43.69806 76.73041 43.68452 76.71645 43.67056 76.88407 43.46187 77.0931 43.22548 77.35805 42.96052 77.45103 42.87357 77.54401 42.78661 77.6398 42.69702 77.67258 42.71443 77.54875 42.87475 77.48815 42.92167 77.59604 42.89133 77.84852 42.67534 78.16328 42.3834 78.20755 42.35418 78.25183 42.32496 78.29744 42.29485 78.37618 42.28911 78.16403 42.53775 78.41674 42.27592 78.27732 42.49745 77.77465 42.9317 77.49422 43.23493 77.73393 42.82186 76.55608 44.10921 76.21623 44.37606 76.26676 44.30747 76.31728 44.23888 76.36934 44.16821ZM75.71784 48.23207C75.55033 48.39656 75.38283 48.56106 75.21025 48.73053 75.45372 48.4825 75.63732 48.28978 75.80555 48.11243 75.7766 48.15191 75.74766 48.19139 75.71784 48.23207ZM62.28977 62.43568C63.18404 61.31787 65.39861 59.30858 65.47526 59.10876 65.69745 58.90012 65.91964 58.69148 66.14857 58.47651 64.75614 59.88719 63.27072 61.40454 62.28977 62.43568ZM63.13639 56.17855C63.22543 56.09864 63.19771 56.14004 63.00104 56.35039 61.94785 57.46289 61.34309 58.14064 62.02659 57.45715 62.61025 56.87349 63.89265 55.61389 63.53615 56.00233 63.04822 56.50531 62.56029 57.0083 62.05757 57.52653 61.64994 57.90223 61.22645 58.23903 60.78388 58.57212 61.61413 57.72818 62.4121 56.92109 63.13639 56.17855ZM60.24471 58.96987C60.5465 58.67264 60.91045 58.32238 61.27596 57.96599 60.96598 58.28199 60.656 58.59799 60.33663 58.92356 60.3063 58.93884 60.27596 58.95413 60.24471 58.96987ZM59.80598 59.29911C60.41195 58.68401 61.03161 58.0826 60.4332 58.71294 60.29809 58.85407 60.16298 58.9952 60.02378 59.14061 59.95191 59.19292 59.88003 59.24522 59.80598 59.29911ZM59.4023 59.64805C59.42594 59.65633 59.54331 59.56634 59.7491 59.36511 59.33896 59.78438 58.52323 60.62748 58.52513 60.55258 58.79476 60.26927 59.09355 59.96136 59.4023 59.64805ZM61.68778 63.16997C61.96341 62.90802 62.20449 62.68063 61.79195 63.12054 61.63427 63.28725 61.47659 63.45397 61.31413 63.62573 61.43743 63.47533 61.56074 63.32493 61.68778 63.16997ZM73.00857 46.32918C72.89794 46.44894 72.45791 46.8844 72.22045 47.1538 72.31902 47.30613 73.22231 46.22037 73.00857 46.32918ZM74.59573 44.63709C74.48894 44.75301 74.04891 45.18847 73.80533 45.45943 73.90618 45.61405 74.80947 44.52828 74.59573 44.63709ZM49.07584 69.57305C49.07711 69.57178 49.07838 69.57051 49.07968 69.56921 49.07841 69.57048 49.07715 69.57174 49.07584 69.57305ZM49.07584 69.57305"/>
</g>
</g>
</g>
</svg>
